Coordinates
version=1
nRows=6
nColumns=63
inDegrees=yes

Units are S.I. units (second, meters, Newtons, ...)
If the header above contains a line with 'inDegrees', this indicates whether rotational values are in degrees (yes) or radians (no).

endheader
time	pelvis_tilt	pelvis_list	pelvis_rotation	pelvis_tx	pelvis_ty	pelvis_tz	hip_flexion_r	hip_adduction_r	hip_rotation_r	knee_angle_r	knee_angle_r_beta	ankle_angle_r	subtalar_angle_r	mtp_angle_r	hip_flexion_l	hip_adduction_l	hip_rotation_l	knee_angle_l	knee_angle_l_beta	ankle_angle_l	subtalar_angle_l	mtp_angle_l	L5_S1_Flex_Ext	L5_S1_Lat_Bending	L5_S1_axial_rotation	L4_L5_Flex_Ext	L4_L5_Lat_Bending	L4_L5_axial_rotation	L3_L4_Flex_Ext	L3_L4_Lat_Bending	L3_L4_axial_rotation	L2_L3_Flex_Ext	L2_L3_Lat_Bending	L2_L3_axial_rotation	L1_L2_Flex_Ext	L1_L2_Lat_Bending	L1_L2_axial_rotation	L1_T12_Flex_Ext	L1_T12_Lat_Bending	L1_T12_axial_rotation	Abs_r3	Abs_r2	Abs_r1	Abs_t1	Abs_t2	neck_flexion	neck_bending	neck_rotation	arm_flex_r	arm_add_r	arm_rot_r	elbow_flex_r	pro_sup_r	wrist_flex_r	wrist_dev_r	arm_flex_l	arm_add_l	arm_rot_l	elbow_flex_l	pro_sup_l	wrist_flex_l	wrist_dev_l
      7.40000000	     12.69194219	    -10.12992777	    179.40763990	     -0.36349828	      0.89352543	      0.08533766	     12.92600007	     -6.59822748	     30.92929871	      1.19449073	      0.02084780	   -130.72615983	     -4.65162466	      0.00000000	     16.10043656	      6.33520779	    -69.81151998	     15.25811060	      0.26630427	    -12.98165297	    -19.78204380	      0.00000000	      0.41397843	     -0.76665787	     -3.42549074	      0.76879934	     -1.01965497	     -3.63958391	      0.68012516	     -1.86405195	     -3.63958391	      0.47313594	     -1.86405195	     -2.99730440	      0.38442037	     -1.56336874	     -2.78321123	      0.23654727	     -1.18755305	     -2.56911805	      2.95700651	     -8.67258720	    -19.05155185	      0.00000000	      0.00000000	     27.90979654	    -35.01938315	    -44.03621538	     12.82646192	     -7.75953869	   -167.01373709	     25.20559045	    -17.13272408	     20.00398313	      5.00000014	     21.50501724	    -25.70514715	    134.46585053	     21.78755670	     54.38770303	     20.00398313	      5.00000014
      7.43333333	     12.91155617	     -9.16231194	    178.71171218	     -0.36496431	      0.89509924	      0.08604032	     13.71749653	     -5.64167018	     31.22774358	      1.15253376	      0.02011551	   -132.12799559	     -4.86972927	      0.00000000	     14.91863580	      6.13642838	    -69.80605357	     12.37452097	      0.21597613	    -17.85557798	    -19.78977908	      0.00000000	      0.40624699	     -0.64610372	     -3.38382031	      0.75444129	     -0.85931795	     -3.59530908	      0.66742318	     -1.57093658	     -3.59530908	      0.46429969	     -1.57093658	     -2.96084277	      0.37724096	     -1.31753470	     -2.74935400	      0.23212953	     -1.00081466	     -2.53786523	      2.90178163	     -7.30885449	    -18.81979344	      0.00000000	      0.00000000	     27.91211126	    -35.20635281	    -44.03512282	     12.77699134	     -8.42762230	   -166.98793400	     24.79822648	    -17.31009153	     20.00398281	      5.00000014	     21.28178703	    -24.88385950	    134.22284864	     20.77086841	     54.47488563	     20.00398281	      5.00000014
      7.46666667	     13.20169105	     -7.99083643	    178.18134764	     -0.36671116	      0.89674986	      0.08711464	     14.37223127	     -4.53385005	     31.40204457	      1.10321723	      0.01925477	   -133.21116840	     -5.16357001	      0.00000000	     13.91610043	      5.54425095	    -69.80336357	     10.16548088	      0.17742111	    -22.04320107	    -19.79755595	      0.00000000	      0.40011966	     -0.50926073	     -3.36516545	      0.74306221	     -0.67731677	     -3.57548829	      0.65735658	     -1.23821654	     -3.57548829	      0.45729676	     -1.23821654	     -2.94451977	      0.37155111	     -1.03848448	     -2.73419693	      0.22862837	     -0.78884487	     -2.52387409	      2.85801470	     -5.76085924	    -18.71604071	      0.00000000	      0.00000000	     27.91446623	    -35.54328074	    -44.03531397	     12.64594249	     -9.07990859	   -166.92862668	     24.36956445	    -17.48965125	     20.00398253	      5.00000014	     21.16363022	    -24.22552738	    134.00891878	     20.46323593	     54.53497405	     20.00398253	      5.00000014
      7.50000000	     13.53289774	     -6.56337530	    177.89857820	     -0.36880815	      0.89841472	      0.08880338	     14.91958227	     -3.27232758	     31.32368095	      1.02717562	      0.01792760	   -134.15766918	     -5.33303220	      0.00000000	     13.04474161	      4.60448319	    -69.80625137	      8.51520016	      0.14861828	    -25.19318412	    -19.80579000	      0.00000000	      0.39274818	     -0.35136241	     -3.38940695	      0.72937265	     -0.46731200	     -3.60124488	      0.64524599	     -0.85430255	     -3.60124488	      0.44887190	     -0.85430255	     -2.96573108	      0.36470596	     -0.71649822	     -2.75389314	      0.22441631	     -0.54426037	     -2.54205521	      2.80536101	     -3.97468180	    -18.85086462	      0.00000000	      0.00000000	     27.91516703	    -35.88810491	    -44.03413635	     12.48893690	     -9.73518586	   -166.82718301	     23.98770552	    -17.67437616	     20.00398227	      5.00000014	     21.07955115	    -23.66285069	    133.86391513	     20.62242716	     54.59082266	     20.00398227	      5.00000014
      7.53333333	     13.89621979	     -4.83552653	    177.82914264	     -0.37113002	      0.89990230	      0.09114693	     15.43389900	     -1.82436305	     31.23170935	      0.85199947	      0.01487020	   -135.11135073	     -5.11788278	      0.00000000	     12.38528815	      3.21353113	    -69.81468113	      7.63611392	      0.13327533	    -26.76487543	    -19.81435884	      0.00000000	      0.38184012	     -0.16903342	     -3.45049989	      0.70911529	     -0.22481445	     -3.66615614	      0.62732513	     -0.41098787	     -3.66615614	      0.43640507	     -0.41098787	     -3.01918741	      0.35457674	     -0.34469296	     -2.80353116	      0.21818344	     -0.26183277	     -2.58787492	      2.72744580	     -1.91213990	    -19.19064526	      0.00000000	      0.00000000	     27.91349331	    -35.95846257	    -44.03059045	     12.36391066	    -10.37606981	   -166.70666165	     23.77674437	    -17.74186510	     20.00398218	      5.00000014	     21.02954241	    -23.14580533	    133.81256949	     21.14094008	     54.60257969	     20.00398218	      5.00000014
      7.56666667	     14.32967907	     -2.95160989	    177.68976715	     -0.37337000	      0.90096331	      0.09421205	     16.16917261	     -0.29708696	     30.89844299	      0.67780317	      0.01182990	   -136.47702574	     -4.72076418	      0.00000000	     11.93075722	      2.00567110	    -69.82862605	      6.39017739	      0.11152964	    -26.77354456	    -19.82208607	      0.00000000	      0.36985677	      0.02583718	     -3.50036221	      0.68686101	      0.03436344	     -3.71913485	      0.60763769	      0.06282051	     -3.71913485	      0.42270931	      0.06282051	     -3.06281694	      0.34344900	      0.05268717	     -2.84404430	      0.21133616	      0.04002178	     -2.62527166	      2.64184995	      0.29227530	    -19.46796452	      0.00000000	      0.00000000	     27.90889733	    -36.01789535	    -44.02481386	     12.27833719	    -11.05485408	   -166.56057357	     23.49568137	    -17.82438142	     20.00398207	      5.00000014	     20.88064219	    -22.60021165	    133.80629315	     21.53622714	     54.62389740	     20.00398207	      5.00000014
